#!OML:ASF E:\Steps\Project 1\Capture day 1\Session 2\Subject.ASF
:FULLY-SPECIFIED
:DEGREES
631
root 8.4766 17.7341 -2.14567 -153.697 1.38221 177.931
lowerback -19.8876 -1.41729 -10.0913
upperback 1.22795 1.35854 -3.33641
thorax 12.5479 0.256684 2.42847
lowerneck -2.39405 -1.91852 -1.63432
upperneck 17.0881 -4.72225 6.6161
head 5.73229 -2.40009 2.03932
rclavicle -5.1684e-015 -1.59028e-014
rhumerus -36.5281 -8.74063 -81.9885
rradius 43.0854
rwrist -9.45545
rhand -4.97249 -53.0905
rfingers 7.12502
rthumb 20.8198 -81.9935
lclavicle -5.1684e-015 -1.59028e-014
lhumerus -32.0463 4.34801 77.8839
lradius 30.582
lwrist -2.02298
lhand -21.0186 -14.7614
lfingers 7.12502
lthumb 5.35635 15.1509
rfemur -37.6628 1.57469 19.296
rtibia 61.2009
rfoot -2.84053 -7.91555
rtoes -34.3749
lfemur -50.8026 -8.08211 -20.9545
ltibia 38.2972
lfoot -10.7527 0.936214
ltoes -12.523
632
root 8.4631 17.7755 -2.21275 -154.04 1.24427 177.893
lowerback -19.5033 -1.54578 -10.0925
upperback 1.37413 1.11599 -3.23785
thorax 12.52 0.129619 2.46237
lowerneck -2.79438 -1.83499 -1.76399
upperneck 17.4135 -4.6329 6.62306
head 5.90192 -2.35367 2.06189
rclavicle -3.97569e-016 -3.65764e-014
rhumerus -36.4798 -8.86249 -81.6853
rradius 42.8647
rwrist -9.35602
rhand -5.24392 -52.5254
rfingers 7.12502
rthumb 20.559 -81.4567
lclavicle -3.97569e-016 -3.65764e-014
lhumerus -31.8092 4.24228 78.022
lradius 30.6684
lwrist -1.7661
lhand -20.9656 -14.9974
lfingers 7.12502
lthumb 5.40756 14.9136
rfemur -38.8628 1.15638 19.3418
rtibia 64.276
rfoot -3.16345 -7.46952
rtoes -35.0994
lfemur -49.7219 -8.21262 -21.114
ltibia 37.5866
lfoot -10.7706 0.85119
ltoes -12.1162
633
root 8.44822 17.8168 -2.27741 -154.245 1.08821 178.038
lowerback -19.2729 -1.63324 -9.91536
upperback 1.43425 0.892706 -3.10041
thorax 12.4778 0.0236036 2.44874
lowerneck -2.99043 -1.73303 -1.6382
upperneck 17.7488 -4.494 6.30538
head 6.02622 -2.29722 1.94522
rclavicle 1.27222e-014 8.5875e-014
rhumerus -36.6405 -9.24761 -81.3516
rradius 42.7718
rwrist -9.02705
rhand -5.39125 -52.4096
rfingers 7.12502
rthumb 20.4175 -81.3562
lclavicle 1.27222e-014 8.5875e-014
lhumerus -31.6103 4.13749 78.1312
lradius 30.6848
lwrist -1.60494
lhand -20.6652 -14.1096
lfingers 7.12502
lthumb 5.6976 15.7938
rfemur -40.2103 0.850525 19.5608
rtibia 67.2494
rfoot -3.40037 -7.07173
rtoes -34.82
lfemur -48.8714 -8.24952 -21.065
ltibia 36.9607
lfoot -10.8398 0.881837
ltoes -13.1729
634
root 8.43027 17.8524 -2.34209 -154.321 1.03253 178.152
lowerback -19.2942 -1.70033 -9.73972
upperback 1.4847 0.737404 -2.97963
thorax 12.5632 -0.053589 2.4376
lowerneck -2.89729 -1.70701 -1.57736
upperneck 17.8862 -4.44777 6.04134
head 6.04474 -2.29542 1.85491
rclavicle -7.95139e-015 -6.67916e-014
rhumerus -36.7489 -9.55132 -80.9665
rradius 42.6301
rwrist -8.85708
rhand -5.51523 -52.6719
rfingers 7.12502
rthumb 20.2983 -81.6312
lclavicle -7.95139e-015 -6.67916e-014
lhumerus -31.4206 4.34301 78.1889
lradius 30.6762
lwrist -1.83234
lhand -20.5952 -13.7658
lfingers 7.12502
lthumb 5.76523 16.1358
rfemur -41.8695 0.588888 19.7202
rtibia 70.3565
rfoot -4.56912 -6.5812
rtoes -35.9612
lfemur -48.1407 -8.26454 -21.0387
ltibia 36.2643
lfoot -10.9608 1.00717
ltoes -14.0726
635
root 8.41329 17.8851 -2.41401 -154.468 1.06479 178.231
lowerback -19.3154 -1.74094 -9.57971
upperback 1.59278 0.633777 -2.90908
thorax 12.7108 -0.108692 2.39273
lowerneck -2.90242 -1.65532 -1.50433
upperneck 17.9437 -4.36756 5.89207
head 6.05607 -2.26342 1.80011
rclavicle 1.31198e-014 2.8625e-014
rhumerus -36.874 -9.88714 -80.6572
rradius 42.5448
rwrist -8.76932
rhand -5.61372 -53.1555
rfingers 7.12502
rthumb 20.2037 -82.1248
lclavicle 1.31198e-014 2.8625e-014
lhumerus -31.1929 4.56574 78.1822
lradius 30.7125
lwrist -2.04198
lhand -20.864 -14.0629
lfingers 7.12502
lthumb 5.50566 15.8455
rfemur -43.5184 0.403294 19.8288
rtibia 73.4084
rfoot -5.41787 -6.24884
rtoes -35.1203
lfemur -47.1987 -8.2248 -21.0918
ltibia 35.3718
lfoot -11.0961 1.09848
ltoes -13.7857
636
root 8.39998 17.9218 -2.48874 -154.771 0.964923 178.309
lowerback -19.1036 -1.79258 -9.378
upperback 1.70507 0.476417 -2.85266
thorax 12.7331 -0.180223 2.29352
lowerneck -2.77651 -1.5303 -1.50843
upperneck 17.7561 -4.19619 6.01486
head 5.97034 -2.1763 1.85265
rclavicle 6.36111e-015 6.36111e-014
rhumerus -37.2946 -10.3641 -80.3987
rradius 42.7534
rwrist -8.63417
rhand -5.50259 -52.9785
rfingers 7.12502
rthumb 20.3105 -81.9365
lclavicle 6.36111e-015 6.36111e-014
lhumerus -31.0786 4.39629 78.2009
lradius 30.8853
lwrist -1.81152
lhand -21.0404 -14.1128
lfingers 7.12502
lthumb 5.33536 15.8
rfemur -44.8829 0.172641 19.9862
rtibia 75.8637
rfoot -6.27182 -6.09884
rtoes -35.7067
lfemur -46.0708 -8.24232 -21.134
ltibia 34.4736
lfoot -11.0755 1.07619
ltoes -12.3194
637
root 8.38639 17.9576 -2.55563 -154.965 0.752743 178.328
lowerback -18.9164 -1.89778 -9.22508
upperback 1.77483 0.259111 -2.77156
thorax 12.7261 -0.280608 2.23297
lowerneck -2.8985 -2.89671 -1.48834
upperneck 18.0398 -3.70166 5.67512
head 6.05921 -1.0707 1.86383
rclavicle -3.97569e-016 -6.36111e-015
rhumerus -37.5239 -10.7521 -80.0653
rradius 42.6261
rwrist -8.47429
rhand -5.54321 -52.5322
rfingers 7.12502
rthumb 20.2714 -81.4943
lclavicle -3.97569e-016 -6.36111e-015
lhumerus -30.9198 4.23791 78.281
lradius 30.9439
lwrist -1.54945
lhand -21.1002 -14.4042
lfingers 7.12502
lthumb 5.27761 15.5101
rfemur -46.3827 -0.115897 20.1241
rtibia 77.8498
rfoot -6.8034 -6.09927
rtoes -36.5278
lfemur -45.2034 -8.40068 -21.1796
ltibia 33.7887
lfoot -10.8969 0.932275
ltoes -9.15614
638
root 8.3707 17.9898 -2.61711 -154.952 0.597762 178.379
lowerback -18.9159 -1.98865 -9.0994
upperback 1.81134 0.0845368 -2.65779
thorax 12.7844 -0.366065 2.23634
lowerneck -3.16844 -2.96915 -1.21155
upperneck 18.3524 -3.75538 5.17988
head 6.19355 -1.10306 1.65563
rclavicle 2.38542e-015 5.40694e-014
rhumerus -37.4889 -11.0585 -79.693
rradius 42.1321
rwrist -8.31984
rhand -5.79589 -52.7815
rfingers 7.12502
rthumb 20.0286 -81.7692
lclavicle 2.38542e-015 5.40694e-014
lhumerus -30.6128 4.33649 78.3658
lradius 30.887
lwrist -1.5745
lhand -21.2937 -14.6417
lfingers 7.12502
lthumb 5.0908 15.2772
rfemur -48.1929 -0.313663 20.2382
rtibia 80.0999
rfoot -7.82713 -6.32072
rtoes -35.8792
lfemur -44.6356 -8.44867 -21.2183
ltibia 33.2237
lfoot -10.7489 0.780326
ltoes -7.55082
